<svg width="64" height="45" viewBox="0 0 64 45" fill="none" xmlns="http://www.w3.org/2000/svg">
<g clip-path="url(#clip0_1_7874)">
<path d="M24.844 0C23.6546 0 22.713 0.941844 22.713 2.13106C22.713 3.32062 23.6546 4.25872 24.844 4.25872C26.0335 4.25872 26.9751 3.32062 26.9751 2.13106C26.9753 0.941844 26.0335 0 24.844 0ZM28.3368 4.54241C27.9167 5.146 27.3491 5.63198 26.688 5.95404L34.5036 20.4965L35.8018 18.4326L28.3368 4.54241ZM21.376 4.57441L11.5427 22.8723L13.4114 23.8794L23.0318 5.96811C22.3702 5.65226 21.8002 5.1726 21.376 4.57464V4.57441ZM2.83348 13.9184L0 14.2944L0.404312 19.4218L3.79098 19.053L2.83348 13.9183V13.9184ZM38.915 17.5638L34.9399 23.5569L47.9469 37.1064L54.1738 33.4575L38.9148 17.5638H38.915ZM3.76261 21.1915L1.80857 21.4043C2.13957 23.6042 2.73615 25.7559 3.58525 27.8122L7.17027 24.4397C5.91557 23.4697 4.76959 22.3824 3.76261 21.1915ZM10.1631 24.539L3.28374 31.0071L4.85821 33.6987L13.1208 26.1311L10.1631 24.539ZM34.6561 26.1986C28.1619 30.2175 20.5437 30.4845 14.0354 28.1702L7.35818 34.2802C12.0178 40.2154 19.0552 44.0744 26.9824 44.0744C34.4018 44.0747 40.9532 41.8147 45.3512 37.3333L44.1631 36.0958C42.4165 37.5025 40.1154 38.6024 37.9503 38.9752C39.2469 37.978 40.7146 36.6658 41.9292 35.3581C38.1979 37.8852 33.5504 39.4116 30.4361 39.0283C34.0176 38.1092 38.4281 35.3438 40.695 32.4857L37.9291 29.6064C35.8086 30.6367 33.1114 31.182 30.7764 30.9681C32.5651 30.2248 34.7033 29.1232 36.3651 27.9787L34.6559 26.1986H34.6561Z" fill="black"/>
<path d="M49.7064 15.1047L46.7931 17.5322L49.7064 19.9596C49.803 20.0388 49.883 20.1363 49.9417 20.2466C50.0005 20.3568 50.0368 20.4776 50.0486 20.602C50.0605 20.7263 50.0476 20.8518 50.0107 20.9711C49.9738 21.0905 49.9136 21.2014 49.8337 21.2973C49.7537 21.3933 49.6556 21.4725 49.5448 21.5304C49.4341 21.5882 49.3131 21.6236 49.1886 21.6344C49.0642 21.6453 48.9388 21.6314 48.8198 21.5935C48.7007 21.5557 48.5903 21.4946 48.495 21.4139L44.7094 18.2593C44.6028 18.1705 44.517 18.0593 44.4582 17.9337C44.3993 17.808 44.3688 17.6709 44.3688 17.5322C44.3688 17.3934 44.3993 17.2563 44.4582 17.1307C44.517 17.005 44.6028 16.8938 44.7094 16.805L48.495 13.6504C48.6881 13.4921 48.936 13.4166 49.1845 13.4402C49.4331 13.4639 49.6622 13.5848 49.822 13.7767C49.9818 13.9685 50.0594 14.2157 50.0377 14.4645C50.016 14.7132 49.8969 14.9433 49.7064 15.1047ZM63.5867 16.805L59.8012 13.6504C59.7058 13.5697 59.5955 13.5086 59.4764 13.4708C59.3574 13.4329 59.232 13.419 59.1076 13.4299C58.9831 13.4407 58.8621 13.4761 58.7513 13.5339C58.6406 13.5918 58.5425 13.671 58.4625 13.767C58.3826 13.863 58.3224 13.9738 58.2855 14.0932C58.2486 14.2125 58.2357 14.338 58.2476 14.4623C58.2594 14.5867 58.2957 14.7075 58.3545 14.8177C58.4132 14.928 58.4932 15.0255 58.5898 15.1047L61.5031 17.5322L58.5898 19.9596C58.4932 20.0388 58.4132 20.1363 58.3545 20.2466C58.2957 20.3568 58.2594 20.4776 58.2476 20.602C58.2357 20.7263 58.2486 20.8518 58.2855 20.9711C58.3224 21.0905 58.3826 21.2014 58.4625 21.2973C58.5425 21.3933 58.6406 21.4725 58.7513 21.5304C58.8621 21.5882 58.9831 21.6236 59.1076 21.6344C59.232 21.6453 59.3574 21.6314 59.4764 21.5935C59.5955 21.5557 59.7058 21.4946 59.8012 21.4139L63.5867 18.2593C63.6934 18.1705 63.7791 18.0593 63.838 17.9337C63.8969 17.808 63.9274 17.6709 63.9274 17.5322C63.9274 17.3934 63.8969 17.2563 63.838 17.1307C63.7791 17.005 63.6934 16.8938 63.5867 16.805ZM56.9951 9.70237C56.8783 9.65989 56.7543 9.64084 56.6301 9.6463C56.5059 9.65177 56.384 9.68165 56.2714 9.73423C56.1587 9.78681 56.0575 9.86107 55.9736 9.95277C55.8897 10.0445 55.8246 10.1518 55.7822 10.2686L50.7348 24.149C50.6492 24.3848 50.6608 24.645 50.767 24.8723C50.8732 25.0996 51.0653 25.2754 51.301 25.3612C51.4046 25.3994 51.514 25.4189 51.6244 25.4187C51.8187 25.4188 52.0083 25.359 52.1675 25.2475C52.3266 25.1361 52.4476 24.9783 52.514 24.7957L57.5614 10.9153C57.6039 10.7985 57.6229 10.6745 57.6175 10.5503C57.612 10.4261 57.5821 10.3042 57.5295 10.1915C57.477 10.0789 57.4027 9.97773 57.311 9.8938C57.2193 9.80987 57.112 9.74482 56.9951 9.70237Z" fill="black"/>
</g>
<defs>
<clipPath id="clip0_1_7874">
<rect width="64" height="44.1418" fill="white"/>
</clipPath>
</defs>
</svg>
